<svg id="Layer_1" data-name="Layer 1" xmlns="http://www.w3.org/2000/svg" viewBox="0 0 215.09 216.58"><defs><style>.cls-1{fill:#010101;stroke:#010101;stroke-miterlimit:10;stroke-width:2px;}</style></defs><path class="cls-1" d="M401,400.34l-7.82-7.76L389,388.39h-52.4l4.21,4.18.18-.18v.37l11.39,11.31h8.58l0,8.51,0,12.11,0,13.85-6.95-6.91-13-12.92-.09-.1-13.11-13-1.55-1.53-5.2-5.19,0-10.49,0-2.16.05-13.32,0-12.81,6.63-6.59,13.1-13,.36-.37h0l.45-.44,12.28-12.2,7.34-7.32,0-11.38L361.3,294l-7.44,7.39L341.21,314l-.45.45-13.1,13-6.54,6.5-5.74,5.7-.82.82-13.1,13L301,354l-.1,25.1v1l0,8.32-.07,15.68V405l.61.61,13.1,13,6.24,6.22,6.85,6.8,12.83,12.75H341l-.28.28,13.09,13,6.86,6.81L367,470.7l13.09,13h0l.61.6v-1.21l.1-24.74V457l0-12.6,0-12v-1.56l.08-24.39v-2.39h23.78Zm-34,44.32-.28-.28h.56Z" transform="translate(-192.04 -291.63)"/><polygon class="cls-1" points="81.64 55.91 75.87 61.65 62.76 74.67 61.56 73.47 49.67 61.65 41.61 53.64 36.56 48.63 35.75 47.81 23.47 35.61 21.66 33.81 10.38 22.6 1.7 13.97 1.65 31.27 1.61 39.93 1.58 47.81 1.56 57.4 1.53 65.89 1.46 83.52 1.44 91.83 1.37 109.66 1.34 117.78 1.28 135.78 1.25 143.73 1.22 152.51 1.2 161.91 1.17 169.68 1.1 188.04 1.07 195.63 1.01 214.17 10.38 204.87 21.1 194.2 21.12 189.5 21.19 168.07 21.2 163.56 21.24 152.51 21.28 141.95 21.3 137.6 21.38 115.81 21.39 111.66 21.46 89.69 21.47 85.72 21.55 63.56 21.56 59.76 23.47 61.65 36.56 74.68 41.52 79.59 49.67 87.69 58.56 96.52 66.98 96.52 75.87 87.69 81.54 82.04 81.52 93.28 81.52 93.3 81.5 96.52 81.46 108.17 81.45 112.2 81.42 119.25 81.37 134.3 88.96 126.74 101.46 114.33 101.46 112.2 101.52 96.52 101.55 88.2 101.55 87.18 101.64 62.08 101.64 61.22 88.96 48.63 81.64 55.91"/></svg>